<svg width="77" height="65" viewBox="0 0 77 65" fill="none" xmlns="http://www.w3.org/2000/svg">
<g clip-path="url(#clip0)">
<path d="M76.1354 33.2475C76.1354 33.2355 76.1346 33.2236 76.1345 33.2116C76.1137 32.4096 75.3525 31.7705 74.3932 31.7705H73.936L66.8752 20.2195C66.5773 19.7317 65.9832 19.428 65.3272 19.4279L53.2725 19.4258L53.7324 16.3412C53.8636 15.1085 53.4132 13.9446 52.4639 13.0636C51.5164 12.1845 50.1935 11.7002 48.7386 11.7002H11.3248C10.3841 11.7002 9.58501 12.3161 9.49532 13.1101L9.12029 15.6515H30.4368C31.821 15.6515 32.9137 16.6009 32.8775 17.7721C32.8412 18.9433 31.6898 19.8928 30.3056 19.8928H23.1954C23.1966 19.8958 23.1979 19.8988 23.1992 19.9017H2.31939C1.34055 19.9017 0.526217 20.573 0.500618 21.4013C0.475019 22.2295 1.24764 22.9009 2.22649 22.9009H29.869C31.1522 23.0681 32.1108 24.0071 32.0755 25.1439C32.0369 26.3923 30.8155 27.4046 29.3425 27.415H10.2851C9.29644 27.415 8.47405 28.0932 8.44809 28.9298C8.42214 29.7664 9.20264 30.4445 10.1913 30.4445H29.0242C30.3262 30.5979 31.304 31.5445 31.2685 32.6924C31.2297 33.9472 29.9959 34.9645 28.513 34.9645H6.90733V34.9661H5.09195C4.10326 34.9661 3.28087 35.6443 3.25492 36.4809C3.22896 37.3174 4.00928 37.9956 4.99815 37.9956H6.56487L5.95211 43.421C5.82072 44.6536 6.27111 45.8175 7.2206 46.6984C8.16794 47.5778 9.49103 48.0619 10.9459 48.0619H12.2974C12.9415 51.1783 16.1279 53.5329 20.0256 53.5329C23.9233 53.5329 27.2554 51.1783 28.0919 48.062H44.9584C46.3221 48.062 47.6132 47.6208 48.6257 46.8984C49.5515 47.6503 50.7788 48.062 52.1189 48.062H52.3964C53.0403 51.1783 56.2267 53.5329 60.1246 53.5329C64.0222 53.5329 67.3544 51.1783 68.1909 48.062H69.3042C72.2044 48.062 74.7765 46.067 75.0378 43.6148L76.1287 33.3894C76.1302 33.3757 76.1294 33.362 76.1305 33.3481C76.1323 33.327 76.1357 33.3064 76.1364 33.2852C76.1368 33.2725 76.1354 33.2602 76.1354 33.2475ZM20.1194 50.5034C17.6517 50.5034 15.6965 48.8048 15.7611 46.7168C15.8258 44.6286 17.886 42.9298 20.3537 42.9298C22.8214 42.9298 24.7764 44.6286 24.7118 46.7168C24.6472 48.8048 22.5871 50.5034 20.1194 50.5034ZM60.2184 50.5034C57.7507 50.5034 55.7957 48.8048 55.8601 46.7168C55.9248 44.6286 57.985 42.9298 60.4527 42.9298C62.9204 42.9298 64.8756 44.6286 64.8108 46.7168C64.7462 48.8048 62.6861 50.5034 60.2184 50.5034ZM71.4712 43.421C71.3781 44.2946 70.4288 45.0326 69.3982 45.0326H68.194C67.3966 42.0859 64.3015 39.9003 60.5463 39.9003C56.7912 39.9003 53.5609 42.0859 52.5813 45.0326H52.2127C51.7577 45.0326 51.3517 44.8882 51.069 44.6258C50.7846 44.362 50.6507 44.0028 50.692 43.6146L52.9492 22.4552L58.1332 22.4561L57.3116 30.1588C57.18 31.3914 57.6302 32.5553 58.5795 33.4362C59.5269 34.3157 60.8503 34.8001 62.3053 34.8001H72.3906L71.4712 43.421Z" fill="#8382C2"/>
</g>
<defs>
<clipPath id="clip0">
<rect width="75.6364" height="64" fill="white" transform="translate(0.5 0.5)"/>
</clipPath>
</defs>
</svg>
