<svg width="512" height="512" xmlns="http://www.w3.org/2000/svg">

 <g>
  <title>background</title>
  <rect fill="none" id="canvas_background" height="402" width="582" y="-1" x="-1"/>
 </g>
 <g>
  <title>Layer 1</title>
  <polygon id="svg_2" points="217.949,313.149 313.196,256 217.949,198.851  " fill="#517fa6"/>
  <path id="svg_3" fill="#517fa6" d="m256,7.098c-137.465,0 -248.902,111.437 -248.902,248.902c0,137.465 111.437,248.902 248.902,248.902c137.465,0 248.902,-111.437 248.902,-248.902c0,-137.465 -111.437,-248.902 -248.902,-248.902zm152.349,261.189c0,26.307 -3.048,52.605 -3.048,52.605s-2.981,22.402 -12.106,32.251c-11.592,12.935 -24.574,13.011 -30.527,13.773c-42.642,3.267 -106.668,3.381 -106.668,3.381s-79.227,-0.771 -103.601,-3.267c-6.782,-1.353 -21.993,-0.962 -33.594,-13.897c-9.134,-9.849 -12.106,-32.251 -12.106,-32.251s-3.048,-26.289 -3.048,-52.605l0,-24.65c0,-26.298 3.048,-52.596 3.048,-52.596s2.981,-22.412 12.106,-32.279c11.601,-12.935 24.574,-13.011 30.527,-13.744c42.633,-3.305 106.592,-3.305 106.592,-3.305l0.143,0c0,0 63.959,0 106.601,3.305c5.953,0.733 18.935,0.81 30.527,13.744c9.134,9.868 12.106,32.279 12.106,32.279s3.048,26.298 3.048,52.605l0,24.651z"/>
 </g>
</svg>