<svg width="40" height="45" viewBox="0 0 40 45" fill="none" xmlns="http://www.w3.org/2000/svg">
<path d="M5 35H15V31.6667H5V35ZM5 15V18.3333H35V15H5ZM5 26.6667H25V23.3333H5V26.6667Z" fill="white"/>
<path d="M9.18555 8.76172C9.18555 8.42969 9.06836 8.17578 8.83398 8C8.59961 7.82031 8.17773 7.63281 7.56836 7.4375C6.95898 7.23828 6.47656 7.04297 6.12109 6.85156C5.15234 6.32812 4.66797 5.62305 4.66797 4.73633C4.66797 4.27539 4.79688 3.86523 5.05469 3.50586C5.31641 3.14258 5.68945 2.85938 6.17383 2.65625C6.66211 2.45312 7.20898 2.35156 7.81445 2.35156C8.42383 2.35156 8.9668 2.46289 9.44336 2.68555C9.91992 2.9043 10.2891 3.21484 10.5508 3.61719C10.8164 4.01953 10.9492 4.47656 10.9492 4.98828H9.19141C9.19141 4.59766 9.06836 4.29492 8.82227 4.08008C8.57617 3.86133 8.23047 3.75195 7.78516 3.75195C7.35547 3.75195 7.02148 3.84375 6.7832 4.02734C6.54492 4.20703 6.42578 4.44531 6.42578 4.74219C6.42578 5.01953 6.56445 5.25195 6.8418 5.43945C7.12305 5.62695 7.53516 5.80273 8.07812 5.9668C9.07812 6.26758 9.80664 6.64062 10.2637 7.08594C10.7207 7.53125 10.9492 8.08594 10.9492 8.75C10.9492 9.48828 10.6699 10.0684 10.1113 10.4902C9.55273 10.9082 8.80078 11.1172 7.85547 11.1172C7.19922 11.1172 6.60156 10.998 6.0625 10.7598C5.52344 10.5176 5.11133 10.1875 4.82617 9.76953C4.54492 9.35156 4.4043 8.86719 4.4043 8.31641H6.16797C6.16797 9.25781 6.73047 9.72852 7.85547 9.72852C8.27344 9.72852 8.59961 9.64453 8.83398 9.47656C9.06836 9.30469 9.18555 9.06641 9.18555 8.76172ZM11.7695 7.77148C11.7695 7.14258 11.8906 6.58203 12.1328 6.08984C12.375 5.59766 12.7227 5.2168 13.1758 4.94727C13.6328 4.67773 14.1621 4.54297 14.7637 4.54297C15.6191 4.54297 16.3164 4.80469 16.8555 5.32812C17.3984 5.85156 17.7012 6.5625 17.7637 7.46094L17.7754 7.89453C17.7754 8.86719 17.5039 9.64844 16.9609 10.2383C16.418 10.8242 15.6895 11.1172 14.7754 11.1172C13.8613 11.1172 13.1309 10.8242 12.584 10.2383C12.041 9.65234 11.7695 8.85547 11.7695 7.84766V7.77148ZM13.4629 7.89453C13.4629 8.49609 13.5762 8.95703 13.8027 9.27734C14.0293 9.59375 14.3535 9.75195 14.7754 9.75195C15.1855 9.75195 15.5059 9.5957 15.7363 9.2832C15.9668 8.9668 16.082 8.46289 16.082 7.77148C16.082 7.18164 15.9668 6.72461 15.7363 6.40039C15.5059 6.07617 15.1816 5.91406 14.7637 5.91406C14.3496 5.91406 14.0293 6.07617 13.8027 6.40039C13.5762 6.7207 13.4629 7.21875 13.4629 7.89453ZM22.3809 6.24805C22.1504 6.2168 21.9473 6.20117 21.7715 6.20117C21.1309 6.20117 20.7109 6.41797 20.5117 6.85156V11H18.8184V4.66016H20.418L20.4648 5.41602C20.8047 4.83398 21.2754 4.54297 21.877 4.54297C22.0645 4.54297 22.2402 4.56836 22.4043 4.61914L22.3809 6.24805ZM25.5215 3.10156V4.66016H26.6055V5.90234H25.5215V9.06641C25.5215 9.30078 25.5664 9.46875 25.6562 9.57031C25.7461 9.67188 25.918 9.72266 26.1719 9.72266C26.3594 9.72266 26.5254 9.70898 26.6699 9.68164V10.9648C26.3379 11.0664 25.9961 11.1172 25.6445 11.1172C24.457 11.1172 23.8516 10.5176 23.8281 9.31836V5.90234H22.9023V4.66016H23.8281V3.10156H25.5215Z" fill="white"/>
</svg>
