<svg width="83" height="56" viewBox="0 0 83 56" fill="none" xmlns="http://www.w3.org/2000/svg">
<path d="M42.5 56L12.6221 26L72.3779 26L42.5 56Z" fill="#DDDDDD"/>
<path d="M6.21973 10.3887C6.21973 10.0013 6.08301 9.70508 5.80957 9.5C5.53613 9.29036 5.04395 9.07161 4.33301 8.84375C3.62207 8.61133 3.05924 8.38346 2.64453 8.16016C1.51432 7.54948 0.949219 6.72689 0.949219 5.69238C0.949219 5.15462 1.09961 4.67611 1.40039 4.25684C1.70573 3.83301 2.14095 3.5026 2.70605 3.26562C3.27572 3.02865 3.91374 2.91016 4.62012 2.91016C5.33105 2.91016 5.96452 3.04004 6.52051 3.2998C7.0765 3.55501 7.50716 3.91732 7.8125 4.38672C8.1224 4.85612 8.27734 5.38932 8.27734 5.98633H6.22656C6.22656 5.5306 6.08301 5.17741 5.7959 4.92676C5.50879 4.67155 5.10547 4.54395 4.58594 4.54395C4.08464 4.54395 3.69499 4.65104 3.41699 4.86523C3.139 5.07487 3 5.35286 3 5.69922C3 6.02279 3.16178 6.29395 3.48535 6.5127C3.81348 6.73145 4.29427 6.93652 4.92773 7.12793C6.0944 7.47884 6.94434 7.91406 7.47754 8.43359C8.01074 8.95312 8.27734 9.60026 8.27734 10.375C8.27734 11.2363 7.9515 11.9131 7.2998 12.4053C6.64811 12.8929 5.77083 13.1367 4.66797 13.1367C3.90234 13.1367 3.20508 12.9977 2.57617 12.7197C1.94727 12.4372 1.46647 12.0521 1.13379 11.5645C0.805664 11.0768 0.641602 10.5117 0.641602 9.86914H2.69922C2.69922 10.9674 3.35547 11.5166 4.66797 11.5166C5.1556 11.5166 5.53613 11.4186 5.80957 11.2227C6.08301 11.0221 6.21973 10.7441 6.21973 10.3887ZM17.7725 13H15.7217V8.73438H11.7227V13H9.67188V3.04688H11.7227V7.08008H15.7217V3.04688H17.7725V13ZM27.7461 8.24902C27.7461 9.22884 27.5729 10.0879 27.2266 10.8262C26.8802 11.5645 26.3835 12.1341 25.7363 12.5352C25.0938 12.9362 24.3555 13.1367 23.5215 13.1367C22.6966 13.1367 21.9606 12.9385 21.3135 12.542C20.6663 12.1455 20.165 11.5804 19.8096 10.8467C19.4541 10.1084 19.2741 9.26074 19.2695 8.30371V7.81152C19.2695 6.83171 19.445 5.97038 19.7959 5.22754C20.1514 4.48014 20.6504 3.9082 21.293 3.51172C21.9401 3.11068 22.6784 2.91016 23.5078 2.91016C24.3372 2.91016 25.0732 3.11068 25.7158 3.51172C26.363 3.9082 26.862 4.48014 27.2129 5.22754C27.5684 5.97038 27.7461 6.82943 27.7461 7.80469V8.24902ZM25.668 7.79785C25.668 6.75423 25.4811 5.96126 25.1074 5.41895C24.7337 4.87663 24.2005 4.60547 23.5078 4.60547C22.8197 4.60547 22.2887 4.87435 21.915 5.41211C21.5413 5.94531 21.3522 6.72917 21.3477 7.76367V8.24902C21.3477 9.2653 21.5345 10.0537 21.9082 10.6143C22.2819 11.1748 22.8197 11.4551 23.5215 11.4551C24.2096 11.4551 24.7383 11.1862 25.1074 10.6484C25.4766 10.1061 25.6634 9.31771 25.668 8.2832V7.79785ZM36.9883 10.1289L38.3281 3.04688H40.3721L38.1641 13H36.0996L34.4795 6.3418L32.8594 13H30.7949L28.5869 3.04688H30.6309L31.9775 10.1152L33.6182 3.04688H35.3545L36.9883 10.1289ZM47.6523 3.04688L50.209 10.2656L52.752 3.04688H55.4453V13H53.3877V10.2793L53.5928 5.58301L50.9062 13H49.498L46.8184 5.58984L47.0234 10.2793V13H44.9727V3.04688H47.6523ZM65.4121 8.24902C65.4121 9.22884 65.2389 10.0879 64.8926 10.8262C64.5462 11.5645 64.0495 12.1341 63.4023 12.5352C62.7598 12.9362 62.0215 13.1367 61.1875 13.1367C60.3626 13.1367 59.6266 12.9385 58.9795 12.542C58.3324 12.1455 57.8311 11.5804 57.4756 10.8467C57.1201 10.1084 56.9401 9.26074 56.9355 8.30371V7.81152C56.9355 6.83171 57.111 5.97038 57.4619 5.22754C57.8174 4.48014 58.3164 3.9082 58.959 3.51172C59.6061 3.11068 60.3444 2.91016 61.1738 2.91016C62.0033 2.91016 62.7393 3.11068 63.3818 3.51172C64.029 3.9082 64.528 4.48014 64.8789 5.22754C65.2344 5.97038 65.4121 6.82943 65.4121 7.80469V8.24902ZM63.334 7.79785C63.334 6.75423 63.1471 5.96126 62.7734 5.41895C62.3997 4.87663 61.8665 4.60547 61.1738 4.60547C60.4857 4.60547 59.9548 4.87435 59.5811 5.41211C59.2074 5.94531 59.0182 6.72917 59.0137 7.76367V8.24902C59.0137 9.2653 59.2005 10.0537 59.5742 10.6143C59.9479 11.1748 60.4857 11.4551 61.1875 11.4551C61.8757 11.4551 62.4043 11.1862 62.7734 10.6484C63.1426 10.1061 63.3294 9.31771 63.334 8.2832V7.79785ZM70.5869 9.35645H68.9531V13H66.9023V3.04688H70.6006C71.7764 3.04688 72.6833 3.30892 73.3213 3.83301C73.9593 4.3571 74.2783 5.09766 74.2783 6.05469C74.2783 6.73372 74.1302 7.30111 73.834 7.75684C73.5423 8.20801 73.098 8.56803 72.501 8.83691L74.6543 12.9043V13H72.4531L70.5869 9.35645ZM68.9531 7.69531H70.6074C71.1224 7.69531 71.5212 7.56543 71.8037 7.30566C72.0863 7.04134 72.2275 6.67904 72.2275 6.21875C72.2275 5.74935 72.0931 5.38021 71.8242 5.11133C71.5599 4.84245 71.152 4.70801 70.6006 4.70801H68.9531V7.69531ZM81.832 8.68652H77.8945V11.3525H82.5156V13H75.8438V3.04688H82.502V4.70801H77.8945V7.08008H81.832V8.68652Z" fill="#D8D8D8"/>
</svg>
