<svg width="71" height="65" viewBox="0 0 71 65" fill="none" xmlns="http://www.w3.org/2000/svg">
<g clip-path="url(#clip0)">
<path d="M44.424 24.6195C43.9702 24.2066 43.3377 23.9697 42.6885 23.9697C42.0301 23.9697 41.4141 24.2003 40.9532 24.6195L32.3597 32.4415L29.3922 29.74C28.9288 29.3194 28.313 29.0877 27.6585 29.0877C27.0034 29.0877 26.3872 29.3198 25.9232 29.7418C25.4595 30.164 25.2041 30.7252 25.2041 31.3219C25.2041 31.9191 25.4597 32.4803 25.923 32.9018L30.6258 37.183C31.0855 37.6005 31.7013 37.8304 32.3593 37.8304C32.3595 37.8304 32.3595 37.8304 32.3595 37.8304C33.0179 37.8304 33.6336 37.6003 34.0954 37.1813L44.4244 27.7795C45.3811 26.9087 45.3813 25.4914 44.424 24.6195Z" fill="#3A3979"/>
<path d="M63.8113 13.6899C63.7724 13.2829 63.5016 12.9243 63.098 12.7458L35.7133 0.617168C35.3608 0.460944 34.9488 0.460944 34.5964 0.617168L7.21182 12.7456C6.80828 12.9243 6.53729 13.2827 6.49861 13.6897C6.46366 14.0554 5.67838 22.77 8.70363 33.4137C10.4857 39.6836 13.2297 45.3082 16.8594 50.1313C21.4118 56.1802 27.3694 60.9708 34.5673 64.3696C34.7515 64.4567 34.9534 64.5001 35.155 64.5001C35.3567 64.5001 35.5586 64.4567 35.7428 64.3696C42.9404 60.9708 48.8985 56.1804 53.4509 50.1313C57.0805 45.3082 59.8246 39.6836 61.6064 33.4137C64.6315 22.77 63.8462 14.0556 63.8113 13.6899ZM35.1548 45.4905C26.2028 45.4905 18.9199 38.8612 18.9199 30.7125C18.9199 22.5639 26.2028 15.9346 35.1548 15.9346C44.1069 15.9346 51.3898 22.5639 51.3898 30.7125C51.3898 38.8612 44.1069 45.4905 35.1548 45.4905Z" fill="#3A3979"/>
</g>
<defs>
<clipPath id="clip0">
<rect width="70.3099" height="64" fill="white" transform="translate(0 0.5)"/>
</clipPath>
</defs>
</svg>
