<svg width="82" height="65" viewBox="0 0 82 65" fill="none" xmlns="http://www.w3.org/2000/svg">
<g clip-path="url(#clip0)">
<path d="M81.3908 36.9084C81.6607 33.3431 77.8624 29.1375 66.3885 28.0126C62.6764 27.6485 59.0704 26.7692 55.8199 25.7039C52.1399 28.3208 53.3631 30.9385 53.4184 31.0515C53.7608 31.7023 53.3671 32.4423 52.5434 32.7129C52.3427 32.7787 52.1347 32.8099 51.9297 32.8099C51.2934 32.8099 50.6874 32.5095 50.4283 32.0173C50.34 31.8492 48.4973 28.1983 52.6709 24.579C50.8995 23.8942 49.2831 23.1826 47.8745 22.5132C42.9317 25.3801 44.4578 28.4443 44.4748 28.477C44.8175 29.1278 44.427 29.8746 43.6036 30.1451C43.4009 30.2118 43.1907 30.2433 42.9842 30.2433C42.3513 30.2433 41.7503 29.9474 41.4921 29.4567C40.6161 27.7914 40.4511 24.165 44.9977 21.0651C43.1436 20.0768 42.0539 19.383 42.0156 19.3585C38.1471 16.9091 36.4075 16.123 34.8568 16.123C32.9687 16.123 32.0761 17.2821 31.2125 18.4031C30.3227 19.5582 29.1043 21.1401 26.3127 22.6737C24.2674 23.797 22.1365 24.3668 19.9792 24.367C19.9785 24.367 19.9787 24.367 19.9781 24.367C14.5372 24.367 9.98 20.8473 7.74815 18.7493C7.43116 18.4514 6.96041 18.2817 6.46705 18.2948C5.97477 18.3056 5.51543 18.4932 5.21976 18.8046C1.36937 22.8607 -0.170577 28.2786 0.767473 34.4729C1.35408 38.3481 2.7198 41.3682 3.18409 42.3143L2.75469 47.4879C2.71442 47.8445 2.86602 48.1982 3.1716 48.4625C3.47761 48.7267 3.91002 48.8773 4.36333 48.8773H68.5151C73.159 48.8773 76.6519 46.7971 78.8973 44.7081C82.1183 41.7106 81.4781 37.3712 81.3908 36.9084ZM76.4351 42.7155C74.832 44.2072 72.1673 46.3247 68.5153 46.3247H6.12852L6.30468 43.399L71.3576 43.3667C73.3952 43.3667 75.2954 42.9539 76.8839 42.244C76.7473 42.4051 76.5989 42.5629 76.4351 42.7155Z" fill="#3A3979"/>
</g>
<defs>
<clipPath id="clip0">
<rect width="81" height="64" fill="white" transform="translate(0.5 0.5)"/>
</clipPath>
</defs>
</svg>
